<svg xmlns="http://www.w3.org/2000/svg" width="420" height="840" viewBox="0 0 420 840" role="img" aria-label="AudioPlayer playlist screenshot">
  <defs>
    <linearGradient id="bg" x1="0" y1="0" x2="1" y2="1">
      <stop offset="0" stop-color="#120f18"/>
      <stop offset="1" stop-color="#251c2a"/>
    </linearGradient>
    <linearGradient id="art" x1="0" y1="0" x2="1" y2="1">
      <stop offset="0" stop-color="#73314c"/>
      <stop offset="1" stop-color="#1f3148"/>
    </linearGradient>
  </defs>
  <rect width="420" height="840" rx="28" fill="url(#bg)"/>
  <text x="32" y="76" fill="#fff7fa" font-family="Arial, sans-serif" font-size="38" font-weight="800">播放列表</text>
  <text x="32" y="110" fill="#d2c2cb" font-family="Arial, sans-serif" font-size="15">6 个会话 · 播放中 3 个</text>
  <g transform="translate(32 150)">
    <rect width="356" height="98" rx="20" fill="#2b2330"/>
    <rect x="16" y="16" width="82" height="66" rx="16" fill="url(#art)"/>
    <text x="116" y="38" fill="#d7c8cf" font-family="Arial, sans-serif" font-size="15" font-weight="700">白键との性活</text>
    <text x="116" y="64" fill="#fff7fa" font-family="Arial, sans-serif" font-size="21" font-weight="900">#9「白鍵と真夏の...</text>
    <circle cx="316" cy="49" r="28" fill="#17121f" stroke="#493a4b"/>
    <polygon points="309,35 309,63 331,49" fill="#fff7fa"/>
  </g>
  <g transform="translate(32 266)">
    <rect width="356" height="98" rx="20" fill="#2b2330"/>
    <rect x="16" y="16" width="82" height="66" rx="16" fill="url(#art)"/>
    <text x="116" y="38" fill="#d7c8cf" font-family="Arial, sans-serif" font-size="15" font-weight="700">本编</text>
    <text x="116" y="64" fill="#fff7fa" font-family="Arial, sans-serif" font-size="21" font-weight="900">#7「白鍵の発情...</text>
    <circle cx="316" cy="49" r="28" fill="#17121f" stroke="#493a4b"/>
    <rect x="306" y="37" width="8" height="24" rx="4" fill="#fff7fa"/>
    <rect x="320" y="37" width="8" height="24" rx="4" fill="#fff7fa"/>
  </g>
  <g transform="translate(32 382)">
    <rect width="356" height="98" rx="20" fill="#2b2330"/>
    <rect x="16" y="16" width="82" height="66" rx="16" fill="url(#art)"/>
    <text x="116" y="38" fill="#d7c8cf" font-family="Arial, sans-serif" font-size="15" font-weight="700">れいきら</text>
    <text x="116" y="64" fill="#fff7fa" font-family="Arial, sans-serif" font-size="21" font-weight="900">video_2026-02...</text>
    <circle cx="316" cy="49" r="28" fill="#17121f" stroke="#493a4b"/>
    <polygon points="309,35 309,63 331,49" fill="#fff7fa"/>
  </g>
  <rect x="48" y="680" width="324" height="90" rx="28" fill="#241f2b" stroke="#4c3c4c"/>
  <rect x="68" y="704" width="58" height="46" rx="14" fill="url(#art)"/>
  <text x="146" y="724" fill="#fff7fa" font-family="Arial, sans-serif" font-size="19" font-weight="900">#9「白鍵と真夏の...</text>
  <rect x="146" y="744" width="180" height="5" rx="3" fill="#403541"/>
  <rect x="146" y="744" width="108" height="5" rx="3" fill="#ff6f9a"/>
  <rect x="48" y="790" width="324" height="34" rx="17" fill="#352a33"/>
</svg>
