<svg xmlns="http://www.w3.org/2000/svg" width="420" height="840" viewBox="0 0 420 840" role="img" aria-label="AudioPlayer timer and settings screenshot">
  <defs>
    <linearGradient id="bg" x1="0" y1="0" x2="1" y2="1">
      <stop offset="0" stop-color="#140e14"/>
      <stop offset="1" stop-color="#251828"/>
    </linearGradient>
  </defs>
  <rect width="420" height="840" rx="28" fill="url(#bg)"/>
  <text x="32" y="76" fill="#fff7fa" font-family="Arial, sans-serif" font-size="36" font-weight="800">睡眠计时器</text>
  <rect x="32" y="124" width="356" height="156" rx="22" fill="#2d2430"/>
  <text x="68" y="184" fill="#fff7fa" font-family="Arial, sans-serif" font-size="48" font-weight="900">30:00</text>
  <text x="70" y="220" fill="#d8c8d0" font-family="Arial, sans-serif" font-size="16">播放后自动开始 · 到时暂停</text>
  <rect x="68" y="244" width="126" height="34" rx="17" fill="#633044"/>
  <text x="96" y="267" fill="#ffd8e2" font-family="Arial, sans-serif" font-size="14" font-weight="800">启动计时</text>
  <text x="32" y="340" fill="#fff7fa" font-family="Arial, sans-serif" font-size="34" font-weight="800">设置</text>
  <g transform="translate(32 374)">
    <rect width="356" height="76" rx="18" fill="#221c26" stroke="#50404e"/>
    <text x="24" y="34" fill="#fff7fa" font-family="Arial, sans-serif" font-size="18" font-weight="800">后台播放</text>
    <text x="24" y="58" fill="#bdaeb7" font-family="Arial, sans-serif" font-size="13">前台服务与通知栏保持播放链路</text>
    <rect x="292" y="24" width="42" height="24" rx="12" fill="#ff6f9a"/>
    <circle cx="322" cy="36" r="10" fill="#fff7fa"/>
  </g>
  <g transform="translate(32 466)">
    <rect width="356" height="76" rx="18" fill="#221c26" stroke="#50404e"/>
    <text x="24" y="34" fill="#fff7fa" font-family="Arial, sans-serif" font-size="18" font-weight="800">多会话播放</text>
    <text x="24" y="58" fill="#bdaeb7" font-family="Arial, sans-serif" font-size="13">多个音频可独立音量、进度和循环策略</text>
    <rect x="292" y="24" width="42" height="24" rx="12" fill="#ff6f9a"/>
    <circle cx="322" cy="36" r="10" fill="#fff7fa"/>
  </g>
  <g transform="translate(32 558)">
    <rect width="356" height="76" rx="18" fill="#221c26" stroke="#50404e"/>
    <text x="24" y="34" fill="#fff7fa" font-family="Arial, sans-serif" font-size="18" font-weight="800">视频转音频</text>
    <text x="24" y="58" fill="#bdaeb7" font-family="Arial, sans-serif" font-size="13">MP3 / FLAC / WAV / AAC / OGG</text>
    <text x="292" y="43" fill="#ffadc2" font-family="Arial, sans-serif" font-size="24">›</text>
  </g>
  <rect x="48" y="758" width="324" height="54" rx="27" fill="#352a33" stroke="#6c4d61"/>
  <text x="82" y="791" fill="#a99aa3" font-family="Arial, sans-serif" font-size="14">音频库</text>
  <text x="186" y="791" fill="#a99aa3" font-family="Arial, sans-serif" font-size="14">播放列表</text>
  <text x="302" y="791" fill="#ff6f9a" font-family="Arial, sans-serif" font-size="14" font-weight="800">设置</text>
</svg>
